<svg width="404" height="94" viewBox="0 0 404 94" fill="none" xmlns="http://www.w3.org/2000/svg">
<path d="M68.168 25.528H34.376L33.056 36.088H60.512L57.872 57.208H30.416L29.096 67.768H62.888L60.116 91H0.98L11.804 2.29599H70.94L68.168 25.528ZM126.109 61.168L144.325 91H114.757L99.7088 63.544H94.8248L91.5248 91H66.1808L77.0048 2.29599H117.133C128.309 2.29599 136.405 4.98 141.421 10.348C146.525 15.716 148.505 22.888 147.361 31.864C146.569 38.464 144.281 44.404 140.497 49.684C136.713 54.964 131.917 58.792 126.109 61.168ZM109.873 42.424C113.041 42.424 115.725 41.632 117.925 40.048C120.213 38.464 121.533 36.088 121.885 32.92C122.237 29.84 121.489 27.508 119.641 25.924C117.881 24.252 115.417 23.416 112.249 23.416H99.8408L97.4648 42.424H109.873ZM207.165 61.168L225.381 91H195.813L180.765 63.544H175.881L172.581 91H147.237L158.061 2.29599H198.189C209.365 2.29599 217.461 4.98 222.477 10.348C227.581 15.716 229.561 22.888 228.417 31.864C227.625 38.464 225.337 44.404 221.553 49.684C217.769 54.964 212.973 58.792 207.165 61.168ZM190.929 42.424C194.097 42.424 196.781 41.632 198.981 40.048C201.269 38.464 202.589 36.088 202.941 32.92C203.293 29.84 202.545 27.508 200.697 25.924C198.937 24.252 196.473 23.416 193.305 23.416H180.897L178.521 42.424H190.929ZM244.475 13.78C255.123 4.716 267.135 0.183997 280.511 0.183997C293.887 0.183997 304.755 4.76 313.115 13.912C321.563 22.976 324.995 33.888 323.411 46.648C321.827 59.496 315.711 70.452 305.063 79.516C294.503 88.58 282.535 93.112 269.159 93.112C255.783 93.112 244.871 88.58 236.423 79.516C228.063 70.364 224.675 59.408 226.259 46.648C227.843 33.8 233.915 22.844 244.475 13.78ZM256.355 63.148C260.315 67.636 265.507 69.88 271.931 69.88C278.355 69.88 284.119 67.636 289.223 63.148C294.327 58.572 297.275 53.072 298.067 46.648C298.859 40.224 297.275 34.768 293.315 30.28C289.355 25.704 284.163 23.416 277.739 23.416C271.315 23.416 265.551 25.704 260.447 30.28C255.343 34.768 252.395 40.224 251.603 46.648C250.811 53.072 252.395 58.572 256.355 63.148ZM380.879 61.168L399.095 91H369.527L354.479 63.544H349.595L346.295 91H320.951L331.775 2.29599H371.903C383.079 2.29599 391.175 4.98 396.191 10.348C401.295 15.716 403.275 22.888 402.131 31.864C401.339 38.464 399.051 44.404 395.267 49.684C391.483 54.964 386.687 58.792 380.879 61.168ZM364.643 42.424C367.811 42.424 370.495 41.632 372.695 40.048C374.983 38.464 376.303 36.088 376.655 32.92C377.007 29.84 376.259 27.508 374.411 25.924C372.651 24.252 370.187 23.416 367.019 23.416H354.611L352.235 42.424H364.643Z" fill="#BEBEBE"/>
</svg>
